<svg width="25" height="25" viewBox="0 0 250 250" fill="none" xmlns="http://www.w3.org/2000/svg">
<path d="M145.834 197.917C185.115 197.917 204.761 197.917 216.959 185.708C229.167 173.51 229.167 153.865 229.167 114.583C229.167 75.3021 229.167 55.6563 216.959 43.4583C204.761 31.25 185.115 31.25 145.834 31.25H104.167C64.8856 31.25 45.2398 31.25 33.0419 43.4583C20.8336 55.6563 20.8336 75.3021 20.8336 114.583C20.8336 153.865 20.8336 173.51 33.0419 185.708C39.844 192.521 48.9586 195.531 62.5002 196.854" stroke="#C0C0C0" stroke-width="15" stroke-linecap="round" stroke-linejoin="round"/>
<path d="M145.834 197.917C132.959 197.917 118.771 203.125 105.823 209.844C85.0106 220.646 74.6044 226.052 69.4794 222.604C64.3544 219.167 65.3231 208.49 67.271 187.146L67.7085 182.292" stroke="#C0C0C0" stroke-width="15" stroke-linecap="round"/>
</svg>
