<svg width="25" height="25" viewBox="0 0 250 250" fill="none" xmlns="http://www.w3.org/2000/svg">
<path d="M225.342 69.2384C222.069 61.6612 217.351 54.7948 211.45 49.0236C205.545 43.2352 198.583 38.6352 190.942 35.4738C183.019 32.1826 174.522 30.498 165.942 30.5177C153.906 30.5177 142.163 33.8136 131.958 40.0392C129.517 41.5285 127.197 43.1642 125 44.9464C122.803 43.1642 120.483 41.5285 118.042 40.0392C107.837 33.8136 96.0938 30.5177 84.0576 30.5177C75.3906 30.5177 66.9922 32.1779 59.0576 35.4738C51.3916 38.6476 44.4824 43.213 38.5498 49.0236C32.6415 54.7883 27.9218 61.6563 24.6582 69.2384C21.2646 77.1242 19.5312 85.4982 19.5312 94.1164C19.5312 102.246 21.1914 110.718 24.4873 119.336C27.2461 126.538 31.2012 134.009 36.2549 141.553C44.2627 153.491 55.2734 165.943 68.9453 178.565C91.6016 199.487 114.038 213.941 114.99 214.527L120.776 218.237C123.34 219.873 126.636 219.873 129.199 218.237L134.985 214.527C135.938 213.916 158.35 199.487 181.03 178.565C194.702 165.943 205.713 153.491 213.721 141.553C218.774 134.009 222.754 126.538 225.488 119.336C228.784 110.718 230.444 102.246 230.444 94.1164C230.469 85.4982 228.735 77.1242 225.342 69.2384V69.2384Z" fill="#EF5B5B"/>
</svg>
